<svg xmlns="http://www.w3.org/2000/svg" width="32.026" height="31.062" viewBox="0 0 32.026 31.062"><defs><style>.a{fill:#0db551;}</style></defs><g transform="translate(0 -0.826)"><circle class="a" cx="0.583" cy="0.583" r="0.583" transform="translate(25.654 14.9)"/><circle class="a" cx="0.583" cy="0.583" r="0.583" transform="translate(4.674 14.9)"/><circle class="a" cx="0.583" cy="0.583" r="0.583" transform="translate(6.423 16.648)"/><circle class="a" cx="0.583" cy="0.583" r="0.583" transform="translate(9.919 16.648)"/><circle class="a" cx="0.583" cy="0.583" r="0.583" transform="translate(8.171 18.397)"/><circle class="a" cx="0.583" cy="0.583" r="0.583" transform="translate(11.668 18.397)"/><circle class="a" cx="0.583" cy="0.583" r="0.583" transform="translate(13.416 20.145)"/><circle class="a" cx="0.583" cy="0.583" r="0.583" transform="translate(16.913 20.145)"/><circle class="a" cx="0.583" cy="0.583" r="0.583" transform="translate(18.661 18.397)"/><circle class="a" cx="0.583" cy="0.583" r="0.583" transform="translate(15.164 21.893)"/><circle class="a" cx="0.583" cy="0.583" r="0.583" transform="translate(20.409 16.648)"/><circle class="a" cx="0.583" cy="0.583" r="0.583" transform="translate(23.906 16.648)"/><circle class="a" cx="0.583" cy="0.583" r="0.583" transform="translate(22.158 18.397)"/><path class="a" d="M26.551,19.457l5.475-3.128-5.627-3.2,5.627-3.215L16.013.826,0,9.919l5.627,3.215L0,16.33l5.627,3.215L0,22.74l16.013,9.148L32.026,22.74l-5.627-3.2.041-.024A.55.55,0,0,0,26.551,19.457ZM16.013,2.166,29.671,9.922,25.22,12.465h0l-9.207,5.26L2.355,9.922ZM6.486,13.987a.575.575,0,0,0,.923.166l1.318.753a.581.581,0,1,0,.61.578.568.568,0,0,0-.077-.273l6.02,3.44a.567.567,0,0,0-.115.33.583.583,0,0,0,1.166,0,.5.5,0,0,0-.017-.083l5.858-3.347a.576.576,0,0,0,.569.516.583.583,0,0,0,.583-.583.571.571,0,0,0-.237-.456l1.283-.733a.545.545,0,0,0,.119.024.576.576,0,0,0,.547-.4l.186-.107,4.449,2.526-1.156.66a.581.581,0,0,0-1.112.238.568.568,0,0,0,.116.331l-2.3,1.314h0L21.5,21a.567.567,0,0,0,.078-.275.583.583,0,1,0-.608.578l-1.319.754a.581.581,0,0,0-.987.417.556.556,0,0,0,.027.132l-2.675,1.528L12.8,22.3a.576.576,0,0,0-.547-.406.549.549,0,0,0-.12.024l-1.283-.733a.572.572,0,0,0,.237-.457.583.583,0,0,0-.583-.583.577.577,0,0,0-.569.517L4.074,17.315a.525.525,0,0,0-.566-.667.571.571,0,0,0-.362.137l-.792-.452ZM29.67,22.743l-13.658,7.8-13.657-7.8L6.8,20.217l9.21,5.261,9.209-5.261Z"/></g></svg>