<svg xmlns="http://www.w3.org/2000/svg" width="32.004" height="28.25" viewBox="0 0 32.004 28.25"><defs><style>.a{fill:#12ff72;}</style></defs><path class="a" d="M60.035,60.047h1.877v1.875H60.035Zm0,0" transform="translate(-56.283 -56.294)"/><path class="a" d="M120.086,60.047h1.877v1.875h-1.877Zm0,0" transform="translate(-112.58 -56.294)"/><path class="a" d="M180.133,60.047h1.877v1.875h-1.877Zm0,0" transform="translate(-168.873 -56.294)"/><path class="a" d="M0,0V28.25H32V0ZM30.128,1.875V7.507H1.875V1.875ZM1.875,26.375V9.382H30.128V26.375H1.875Zm0,0"/><path class="a" d="M271.012,241h10.322v1.875H271.012Zm0,0" transform="translate(-254.072 -225.936)"/><path class="a" d="M75.855,241H86.177v1.875H75.855Zm0,0" transform="translate(-71.114 -225.936)"/><path class="a" d="M75.855,241H98.376v1.875H75.855Zm0,0" transform="translate(-71.114 -221.936)"/><path class="a" d="M165.93,180.953h11.26v1.875H165.93Zm0,0" transform="translate(-155.558 -169.642)"/><path class="a" d="M75.855,180.953h3.753v1.875H75.855Zm0,0" transform="translate(-71.114 -169.642)"/><path class="a" d="M376.1,180.953h3.753v1.875H376.1Zm0,0" transform="translate(-352.589 -169.642)"/></svg>