<svg xmlns="http://www.w3.org/2000/svg" width="20.603" height="32.087" viewBox="0 0 20.603 32.087"><defs><style>.a{fill:#7c12cd;}</style></defs><g transform="translate(-43.819 -10.032)"><g transform="translate(43.819 10.032)"><g transform="translate(0)"><path class="a" d="M115.631,93.2a10.5,10.5,0,0,0-10.3,10.645,10.9,10.9,0,0,0,3.483,8c1.63,1.685,1.482,5.284,1.445,5.323a.646.646,0,0,0,.185.5.673.673,0,0,0,.445.191h9.449a.6.6,0,0,0,.445-.191.742.742,0,0,0,.185-.5c0-.038-.185-3.638,1.445-5.323l.111-.115a10.9,10.9,0,0,0,3.409-7.888A10.5,10.5,0,0,0,115.631,93.2Zm5.929,17.653c-.037.038-.111.115-.111.153-1.445,1.608-1.7,4.25-1.742,5.514h-8.189c-.037-1.264-.3-4.021-1.853-5.667a9.467,9.467,0,0,1-3.113-7.046,9.047,9.047,0,1,1,18.084,0A9.434,9.434,0,0,1,121.56,110.853Z" transform="translate(-105.329 -93.2)"/><path class="a" d="M209.98,121.6a.651.651,0,0,0,0,1.3,6.97,6.97,0,0,1,6.969,6.969.651.651,0,1,0,1.3,0A8.237,8.237,0,0,0,209.98,121.6Z" transform="translate(-199.819 -118.737)"/><path class="a" d="M165.038,358.4h-8.5a1.608,1.608,0,1,0,0,3.217H165a1.651,1.651,0,0,0,1.647-1.608A1.618,1.618,0,0,0,165.038,358.4Zm0,1.876h-8.5a.3.3,0,0,1-.306-.306.282.282,0,0,1,.306-.306H165a.3.3,0,0,1,.306.306A.273.273,0,0,1,165.038,360.276Z" transform="translate(-150.524 -333.397)"/><path class="a" d="M175.711,398.8h-5.974a1.608,1.608,0,1,0,0,3.217h5.974a1.618,1.618,0,0,0,1.608-1.608A1.594,1.594,0,0,0,175.711,398.8Zm0,1.876h-5.974a.3.3,0,0,1-.306-.306.282.282,0,0,1,.306-.306h5.974a.306.306,0,1,1,0,.613Z" transform="translate(-162.46 -369.929)"/></g></g></g></svg>